/* XPM */
static char *result[] = {
/* columns rows colors chars-per-pixel */
"64 64 60 1 ",
"  c #252525",
". c #282828",
"X c gray16",
"o c #2A2A2A",
"O c gray17",
"+ c #2C2C2C",
"@ c #2D2D2D",
"# c gray18",
"$ c #2F2F2F",
"% c gray19",
"& c #313131",
"* c #323232",
"= c gray20",
"- c #343434",
"; c #353535",
": c #373737",
"> c gray22",
", c #3A3A3A",
"< c gray23",
"1 c #3C3C3C",
"2 c gray24",
"3 c #3E3E3E",
"4 c #3F3F3F",
"5 c gray25",
"6 c #414141",
"7 c gray26",
"8 c #434343",
"9 c #444444",
"0 c gray27",
"q c #464646",
"w c gray28",
"e c #484848",
"r c #494949",
"t c gray29",
"y c #4C4C4C",
"u c gray30",
"i c #4E4E4E",
"p c gray31",
"a c #505050",
"s c #515151",
"d c gray32",
"f c #535353",
"g c gray33",
"h c #555555",
"j c #565656",
"k c #868686",
"l c #888888",
"z c #9B9B9B",
"x c #9D9D9D",
"c c gray67",
"v c #B2B2B2",
"b c gray95",
"n c #F3F3F3",
"m c #F4F4F4",
"M c gray96",
"N c gray98",
"B c gray99",
"V c #FDFDFD",
"C c #FEFEFE",
"Z c white",
/* pixels */
"dddddddddddddds999+dddddd@@@@@@@@@@@@@@@@ddddO887ddddddddddddddd",
"ddddddddddddddd999Osdddddddddddddddddddddddddo889ddddddddddddddd",
"dddddddddddddds999Osdddddddddddddddddddddddddo889ddddddddddddddd",
"ddddddddddddddd888Osdddddddddddddddddddddddddo889ddddddddddddddd",
"dddddddddddddds888OsddddddCCCCCCCCCCCCCCCddddo889ddddddddddddddd",
"dddddddddddddds888Osdddddddddddddddddddddddddo889ddddddddddddddd",
"dddddddddddddds888Osdddddddddddddddddddddddddo889ddddddddddddddd",
"dddddddddddddds889Osdddddddddddddddddddddddddo889ddddddddddddddd",
"dddddddddddddds889Osdddddddddddddddddddddddddo889ddddddddddddddd",
"dddddddddddddds889Osdddddddddddddddddddddddddo889ddddddddddddddd",
"dddddddddddddds889Osdddddddddddddddddddddddddo889ddddddddddddddd",
"dddddddddddddds889Osdddddddddddddddddddddddddo889ddddddddddddddd",
"dddddddddddddds889Osdddddddddddddddddddddddddo889ddddddddddddddd",
"dddddddddddddds668Osdddddddddddddddddddddddddo889ddddddddddddddd",
"dddddddddddddds778Osdddddddddddddddddddddddddo889ddddddddddddddd",
"ddddddddddddddg778Osdddddddddddddddddddddddddo889ddddddddddddddd",
"ddddddddddddddf778Osdddddddddddddddddddddddddo889ddddddddddddddd",
"udddddddddddddf778Osdddddddddddddddddddddddddo889ddddddddddddfda",
"#dfdddddddddddf778Osdddddddddddddddddddddddddo889ddddddddddddfg>",
"f@$dddddddddddf778Osdddddddddddddddddddddddddo889ddddddddddddw&j",
"sa.Xddddddddddf778Osdddddddddddddddddddddddddo889ddddddddddh%&sd",
"dddq#qfdddddddf778Osdddddddddddddddddddddddddo889dddddddddd#qgdd",
"dlkfOdddddddddf778Osdddddddddddddddddddddddddo889ddddddddddOfnMd",
"dBVs+dddddddddf778Osdddddddddddddddddddddddddo889ddddddddddOfCZd",
"dZZg+fddddddddf778Osdddddddddddddddddddddddddo889ddddddddddOfZZd",
"dZZf+fddddddddf778Osdddddddddddddddddddddddddo889ddddddddddOfZZd",
"dZZf+fddddddddf778Osdddddddddddddddddddddddddo889ddddddddddOfZZd",
"dZZf+fddddddddf778Osdddddddddddddddddddddddddo889ddddddddddOfZZd",
"dZZf+fddddddddf778Osdddddddddddddddddddddddddo889ddddddddddOfZZd",
"dZZf+fddddddddf778Osdddddddddddddddddddddddddo889ddddddddddOfZZd",
"dZZf+fddddddddf778Osdddddddddddddddddddddddddo889ddddddddddOfZZd",
"dZZf+fddddddddf778Osdddddddddddddddddddddddddo889ddddddddddOfZZd",
"dZCf+fddddddddf778Osdddddddddddddddddddddddddo889ddddddddddOfZZd",
"dZZf+fddddddddf778Osdddddddddddddddddddddddddo889ddddddddddOfZZd",
"dZZf+fddddddddf778Osdddddddddddddddddddddddddo889ddddddddddOfZZd",
"dZZf+fddddddddf778Osdddddddddddddddddddddddddo889ddddddddddOfZZd",
"dZZf+fddddddddf778Osdddddddddddddddddddddddddo889ddddddddddOfZZd",
"dZZf+fddddddddf778Osdddddddddddddddddddddddddo889ddddddddddOfZZd",
"dZZf+fddddddddf778Osdddddddddddddddddddddddddo889ddddddddddOfZZd",
"dZZf+fddddddddf778Osdddddddddddddddddddddddddo889ddddddddddOfZZd",
"dZZf+fddddddddf778Osdddddddddddddddddddddddddo889ddddddddddOfZZd",
"dmbs+dddddddddf778Osdddddddddddddddddddddddddo889ddddddddddOfZVd",
"ddss dddddddddf778Osdddddddddddddddddddddddddo889ddddddddddOgfdf",
"ddf$-dddddddddf778Osdddddddddddddddddddddddddo889dddddddddsXhadd",
"dtO6ddddddddddf778Osdddddddddddddddddddddddddo889dddddddddda;1dd",
"-#hsddddddddddf778Osdddddddddddddddddddddddddo889ddddddddddffy=s",
"Osddddddddddddf778Osdddddddddddddddddddddddddo889ddddddddddddff$",
"ddddddddddddddf778Osdddassssssssssssssaddddddo889dddddddddddddsd",
"ddddddddddddddf778Osddhuddssssssssssssd-dddddo889ddddddddddddddd",
"ddddddddddddddf778Osdd ddddddddddddddddafddddo889ddddddddddddddd",
"ddddddddddddddf778Osdddddddddddddddddddffddddo889ddddddddddddddd",
"ddddddddddddddd778Osddsdddddddddddddddddsddddo888ddddddddddddddd",
"dddddddddddddds878Osddsddda#a$uod+=%ddddsddddo888ddddddddddddddd",
"dddddddddddddds877osddsdddd+f+dOs+@@dddfddddd+886ddddddddddddddd",
"dddddddddddddds888Osddsdddd+f+dOs+@@dddfddddsO999ddddddddddddddd",
"dddddddddddddds888Osddsdddd+f+dOs+@@dddfddddsO999ddddddddddddddd",
"dddddddddddddds888+dddsdddd+f+dOd+@@dddfdddddO95wddddddddddddddd",
"ddddddddddddddd979+fddsdddd+f+dOd++@dddfddddd$23addddddddddddddd",
"ddddddddddddddf4<,$pdagdsfs$s+f@sX;%dfffafffd@428ddddddddddddddd",
"ddddddddddddddh<<3+$+O+OOOOOoOoOOOOOoOOOOOOOOO33qsdddddddddddddd",
"dddddddddddddd090@#:214222254444445422542355:O2wqqdddddddddddddd",
"dddddddddddddf00wO9cZCCCZCCCCCCCCCCCCZZCCCCza6Oeqqtddddddddddddd",
"ddddddddddddd00q@*wvVVVVVVVVVVVVVVVVVVVVVVNxd7@%wqwsdddddddddddd",
"fdddddddddddi005+4sddddddddddddddddddddddddddd8Owqqrdddddddddddd"
};
