/* XPM */
static char *result[] = {
/* columns rows colors chars-per-pixel */
"64 64 41 1 ",
"  c gray16",
". c #2A2A2A",
"X c gray17",
"o c #2C2C2C",
"O c #2D2D2D",
"+ c gray18",
"@ c #2F2F2F",
"# c gray19",
"$ c #313131",
"% c #323232",
"& c gray20",
"* c #343434",
"= c gray21",
"- c #373737",
"; c #393939",
": c #3A3A3A",
"> c gray24",
", c #3E3E3E",
"< c #3F3F3F",
"1 c gray25",
"2 c #414141",
"3 c gray26",
"4 c #434343",
"5 c gray27",
"6 c #464646",
"7 c #484848",
"8 c #494949",
"9 c #4E4E4E",
"0 c gray31",
"q c #505050",
"w c #515151",
"e c gray32",
"r c #535353",
"t c gray33",
"y c #555555",
"u c #D8D8D8",
"i c gray85",
"p c gray98",
"a c #FDFDFD",
"s c #FEFEFE",
"d c white",
/* pixels */
"eeeeeeeerreeeeeeeee6@,eeeeeeXosdXweeeeee<,,eeeeeeeeeeereeeeeeeee",
"eeeeeeeerreeeeeeeee4@,eeeeeeXXddXweeeeee<,,weeeeeeeeeereeeeeeeee",
"eeeeeeeerreeeeeeeee4@1eeeeeeXXddXweeeeee<,,weeeeeeeeeereeeeeeeer",
"eeeeeeeerreeeeeeeee2#<eeeeeeXXddXweeeeee<,,weeeeeeeeeereeeeeeeee",
"eeeeeeeerreeeeeeeee3@<eeeeeeXXddXweeeeee<,<eeeeeeeeeeereeeeeeeee",
"eeeeeeeerreeeeeeeee3@<eeeeeeXXddXweeeeee<,>eeeeeeeeeeereeeeeeeet",
"eeeeeeeerreeeeeeeee2@<eeeeeeXXddXweeeeee<,>eeeeeeeeeeereeeeeeeet",
"eeeeeeeerreeeeeeeee2@<eeeeeeXXddXweeeeee<,>eeeeeeeeeeereeeeeeeee",
"eeeeeeeerreeeeeeeee2O<eeeeeeXXsdXweeeeee<,>eeeeeeeeeeereeeeeeeet",
"eeeeeeeerreeeeeeeee2O<eeeeeeXXddXweeeeee<,>eeeeeeeeeeereeeeeeeet",
"eeeeeeeerreeeeeeeee2O<eeeeeeXoddXweeeeee<,>eeeeeeeeeeereeeeeeeet",
"eeeeeeeerreeeeeeeee1@<eeeeeeXXddXweeeeee<,>eeeeeeeeeeereeeeeeeet",
"eeeeeeeerreeeeeeeee1@<eeeeeeXXsdXweeeeee<,>eeeeeeeeeeereeeeeeeet",
"eeeeeeeerreeeeeeeee1@<eeeeeeXXsdXweeeeee<,>eeeeeeeeeeereeeeeeeet",
"eeeeeeeerreeeeeeeee<O<eeeeeeXoddXweeeeee<,>eeeeeeeeeeereeeeeeeet",
"eeeeeeeerreeeeeeeee<+<eeeeeeXoddXweeeeee<,>eeeeeeeeeeereeeeeeeet",
"eeeeeeeerreeeeeeeee<o<eeeeeeXoddXweeeeee<,>eeeeeeeeeeereeeeeeeet",
"eeeeeeeerreeeeeeeee1O<eeeeeeXoddXweeeeee<,>eeeeeeeeeeereeeeeeeet",
"eeeeeeeerreeeeeeeee1O<eeeeeeXoddXweeeeee<,>eeeeeeeeeeereeeeeeeet",
"eeeeeeeerreeeeeeeee2@<eeeeeeXXddXweeeeee<,>eeeeeeeeeeereeeeeeeet",
"eeeeeeeerreeeeeeeee1@<eeeeeeXXsdXweeeeee<,>eeeeeeeeeeereeeeeeeet",
"eeeeeeeerreeeeeeeee<@<eeeeeeX.ddXweeeeee<,>eeeeeeeeeeereeeeeeeet",
"eeeeeeeerreeeeeeeee<@<eeeeeeX.ddXweeeeee<,>eeeeeeeeeeereeeeeeeet",
"eeeeeeeerreeeeeeeee<@<eeeeeeX.ddXweeeeee<,>eeeeeeeeeeereeeeeeeet",
"eeeeeeeerreeeeeeeee<@<eeeeeeXXsdXweeeeee<,>eeeeeeeeeeereeeeeeeet",
"eeeeeeeerreeeeeeeee<@<eeeeeeXXddXweeeeee<,>eeeeeeeeeeereeeeeeeet",
"eeeeeeeerreeeeeeeee<@<eeeeeeXXddXweeeeee<,>eeeeeeeeeeereeeeeeeet",
"eeeeeeeerreeeeeeeee<@<eeeeeeXodsXweeeeee<,>eeeeeeeeeeereeeeeeeet",
"eeeeeeeerreeeeeeeee<@<eeeeeeXoddXweeeeee<,>eeeeeeeeeeereeeeeeeet",
"eeeeeeeerreeeeeeeee<@<eeeeeeXoddXweeeeee<,>eeeeeeeeeeereeeeeeeet",
"eeeeeeeerreeeeeeeee,@<eeeeeeXoddXweeeeee<,>eeeeeeeeeeereeeeeeeet",
"eeeeeeeerreeeereeee<@<eeeeeeXXddXweeeeee<,>eeeeeeeeeeereeeeeeeet",
"eeeeeeeerreeeeqweee,@<eeeeeeXXddXweeeeee<,>eeeeeeeeeeereeeeeeeet",
"eeeeeeeerreeeeqweee<O<eeeeeeXoddXweeeeee<,>eeeeeeeeeeereeeeeeeet",
"eeeeeeeerreeeeqweee<O<eeeeeeXXddXweeeeee<,>eeeeeeeeeeereeeeeeeet",
"eeeeeeeerreeeeeeeee<O<eeeeeeXoddXweeeeee<,>eeeeeeeeeeereeeeeeeet",
"eeeeeeeerreeeeeeeee<O<eeeeeeXoddXweeeeee<,>eeeeeeeeeeereeeeeeeet",
"eeeeeeeerreeeeeeeee<O<eeeeeeXoddXweeeeee<,>eeeeeeeeeeereeeeeeeet",
"eeeeeeeerreeeeeeeee<+<eeeeeeXoddXweeeeee<,>eeeeeeeeeeereeeeeeeet",
"eeeeeeeerreeeeeeeee<+<eeeeeeXoddXweeeeee<,>eeeeeeeeeeereeeeeeeet",
"eeeeeeeerreeeeeeeee<+<eeeeeeXXsdXweeeeee<,>eeeeeeeeeeereeeeeeeet",
"eeeeeeeerreeeeeeeee1+<eeeeeeXosdoweeeeee<,>eeeeeeeeeeereeeeeeeet",
"eeeeeeeerreeeeeeeee,o<eeeeeeX.pa#weeeeee<,>eeeeeeeeeeereeeeeeeet",
"eeeeeeeerreeeeeeeee,o<eeeeeeXo-*Xeweeeee<,>eeeeeeeeeeereeeeeeeet",
"eeeeeeeerreeeeeeeee<O<eeeeeeq.ooXqeeeeee<,>eeeeeeeeeeereeeeeeeet",
"eeeeeeeerreeeeeeeee<+<eeeeeeeeeeeeeeeeee<,>eeeeeeeeeeereeeeeeeet",
"eeeeeeeerreeeeeeeee<@<eeeeeeeeeeeeeereee<,>eeeeeeeeeeereeeeeeeet",
"eeeeeeeerreeeeeeeee<+<eqroOXwooO.qoO.ewe<,>eeeeeeeeeeereeeeeeeet",
"eeeeeeeerreeeeeeeee<O<ewyXXoeXXXXeXXXwwe<,>eeeeeeeeeeereeeeeeeet",
"eeeeeeeerreeeeeeeee<O<ewy887w7778w878eee<,>eeeeeeeeeeereeeeeeeet",
"eeeeeeeerreeeeeeeee,O<etwe0wrrrqwweeerqr<<>eeeeeeeeeeereeeeeeeet",
"eeeeeeeereeeeeeeeee,O<eoX.eXXXXwXXXeXXXr<<>eeeeeeeeeeereeeeeeeet",
"eeeeeeeeereeeeeeeee,O<eOo r.Xo.w#X.eXX w2<>eeeeeeeeeeeeeeeeeeeet",
"etweeeeeeweeeeeewee,O<erqqwwwqqewwweqwqe4<,eeeeeeeewwrrrwweeeret",
"wwo$O++++ooooO++o0r,O,5%O.X............XO,,eee9qwqwqwtrwweweqyet",
"w1ewrtrrererreeew%t,O,.XOooooooooooooooXX,,eee;$OOOOXoO+OOOO+:et",
"r@wewwwweeeeeeewqow,OXX%1,<<<<<<<<<<<<<=XX,ee4weeeeerrwwwqwwr1rr",
"qoeeeeeeeeeeeeeeeow,OX 4usassddsassassi<Xo,ee*reeeeeeeeeeeeeer@r",
"qoeeeeeeeeeeeeeerow,OXX1@oOO++++++++++%,OX>we&reeeeeeeeeeeeeeeot",
"qoeeeeeeeeeeeeeewor<OX.1eeeeeeeeeeeeeew,oX>qe&reeeeeeeeeeeeeee+r",
"qoeeeeeeeeeeeeeewow,OX.1eeeeeeeeeeeeeee,oX>ee&reeeeeeeeeeeeeeeOr",
"q+eeeeeeeeeeeeeewow,oX 1rrrrrrrrrrrrrrt1oX>ww*teeeeeeeeeeeeeeeOr",
"eoeeeeeeeeeeeeeewow<+ .oXXXXXXXXXXXXXXXXXo,wr-tewwwwweeeeeeeeeOw",
"q@rwwwwwwwwwwwww0ow>#ytrrretrrrrrrrrrrrrrr>ww>rwwwwwwweewwwwwwor"
};
