/* XPM */
static char *result[] = {
/* columns rows colors chars-per-pixel */
"64 64 63 1 ",
"  c #252525",
". c gray15",
"X c #272727",
"o c #282828",
"O c gray16",
"+ c #2A2A2A",
"@ c gray17",
"# c #2C2C2C",
"$ c #2D2D2D",
"% c gray18",
"& c #2F2F2F",
"* c gray19",
"= c #313131",
"- c #323232",
"; c #343434",
": c #353535",
"> c gray21",
", c #373737",
"< c gray22",
"1 c #393939",
"2 c #3A3A3A",
"3 c gray23",
"4 c #3C3C3C",
"5 c gray24",
"6 c #3E3E3E",
"7 c #3F3F3F",
"8 c gray25",
"9 c #414141",
"0 c gray26",
"q c #434343",
"w c #444444",
"e c gray27",
"r c #464646",
"t c gray28",
"y c #484848",
"u c #494949",
"i c gray29",
"p c #4B4B4B",
"a c #4C4C4C",
"s c gray30",
"d c #4E4E4E",
"f c gray31",
"g c #505050",
"h c #515151",
"j c gray32",
"k c #535353",
"l c gray33",
"z c #555555",
"x c gray34",
"c c #585858",
"v c gray35",
"b c gray42",
"n c #747474",
"m c gray46",
"M c #767676",
"N c #D8D8D8",
"B c #EEEEEE",
"V c #F3F3F3",
"C c #F8F8F8",
"Z c #FBFBFB",
"A c #FDFDFD",
"S c #FEFEFE",
"D c white",
/* pixels */
"jjjjjjjjkjjjjjjjjjjjjjjjjjjjjjjjjjjjjjjjjjjjjjjjjjjjjjjjjjjjjjju",
"jjjjjzljkhhhhhhhhhhhghhhhhffhhhkhhhfghghhhggghhhhghhhhfflghjjjjj",
"jjjjhs%kgfffffffffffffffffffffflhgffffffffffffffffffffffk%jjjjjj",
"jjjkr#ghjjjkjjjjjjjjjjjjjjjjjjjjjjjjjjjjjjjjjjjjjjjjjjjjjj%ggjjj",
"jjkd#z:O@@$fjjjjjjjjjjjjjjjjjjjjjjjjjjjjjjjjjjjjjjjj5#@@#3h%kjjj",
"jjjjjltjkkshjjjjjjjjjjjjjjjjjjjjjjjjjjjjjjjjjjjjjjjj#hjkj:k;hjjj",
"jjjjlkO##@@hjjjjjjjjjjjjjjjjjjjjjjjjjjjjjjjjjjjjjjjj#.#@@+k%hjjj",
"jjjhjggkjjkkjjjjjjjhjjjjjjjjjjjjjjjjjjjjjjjjjjjjjjjhhjkkjjj$kjjj",
"jjjj*sjjjjjjjrq487576776666666666666666666666666607jjjjjjjr.jjjj",
"jjjh71&jjjjjh*764444444444444444444444444444444476=kjjjjh#5#jjjj",
"jjjkkr3@gjjjh0ijjjjjjjjjjjjjjjjjjjjjjjjjjjjjjjjjk64jjjgr$5g@jjjj",
"jjjhjkk5%=hjj6zjjjjjjjjjjjjjjjjjjjjjjjjjjjjjjjjjj75jjf=&7lk+jjjj",
"jjjhjjjh5:%zj8kjjjjjjjjjjjjjjjjjjjjjjjjjjjjjjjjjj75jj%28jjj+jjjj",
"jjjhjjjjjq8&h8kjjjjjjjjjjjjjjjjjjjjjjjjjjjjjjjjjj75k$5ujjjj+jjjj",
"jjjhjklypky%g8kjjjjjjjjjjjjjjjjjjjjjjjjjjjjjjjjjj75j1jkfpkj+jjjj",
"jjjhjlBV+jh@j8kjjjjjjjjjjjjjjjjjjjjjjjjjjjjjjjjjj75j:kj4Nkj+jjjj",
"jjjhjjAD+jk+k8kjjjjjjjjjjjjjjjjjjjjjjjjjjjjjjjjjj75j:kjbDjj+jjjj",
"jjjhjhDD+jk+k8kjjjjjjjjjjjjjjjjjjjjjjjjjjjjjjjjjj75j:khMDhj+jjjj",
"jjjhjjSD+jk+k8kjjjjjjjjjjjjjjjjjjjjjjjjjjjjjjjjjj75j:kjmDhj+jjjj",
"jjjhjhDDohk+k8kjjjjjjjjjjjjjjjjjjjjjjjjjjjjjjjjjj75j:kjnDhj+jjjj",
"jjjhjjDD@jk+k8kjjjjjjjjjjjjjjjjjjjjjjjjjjjjjjjjjj75j:kjmDhj+jjjj",
"jjjhjjDD#jk+k8kjjjjjjjjjjjjjjjjjjjjjjjjjjjjjjjjjj75j:kjmDhj+jjjj",
"jjjhjhDD#jk+k8kjjjjjjjjjjjjjjjjjjjjjjjjjjjjjjjjjj75j:kjmDhj+jjjj",
"jjjhjjDD#jk+k8kjjjjjjjjjjjjjjjjjjjjjjjjjjjjjjjjjj75j:kjmDhj+jjjj",
"jjjhjjDD#jk+k8kjjjjjjjjjjjjjjjjjjjjjjjjjjjjjjjjjj75j:kjnDhj+jjjj",
"jjjhjhDD#jk+k8kjjjjjjjjjjjjjjjjjjjjjjjjjjjjjjjjjj75j:khMDhj+jjjj",
"jjjhjhDD#jk+k8kjjjjjjjjjjjjjjjjjjjjjjjjjjjjjjjjjj75j:kjmDhj+jjjj",
"jjjhjhDD#jk+k8kjjjjjjjjjjjjjjjjjjjjjjjjjjjjjjjjjj75j:khMDhj+jjjj",
"jjjhjjDD#jk+k8kjjjjjjjjjjjjjjjjjjjjjjjjjjjjjjjjjj75j:kjnDhj+jjjj",
"jjjhjjDD#jk+k8kjjjjjjjjjjjjjjjjjjjjjjjjjjjjjjjjjj75j:kjmDhj+jjjj",
"jjjhjjDD#jk+k8kjjjjjjjjjjjjjjjjjjjjjjjjjjjjjjjjjj75j:kjmDhj+jjjj",
"jjjhjhDD#jk+k8kjjjjjjjjjjjjjjjjjjjjjjjjjjjjjjjjjj75j:kjmDhj+jjjj",
"jjjhjhDD#jk+k8kjjjjjjjjjjjjjjjjjjjjjjjjjjjjjjjjjj75j:kjmDhj+jjjj",
"jjjhjjDD#jk+k8kjjjjjjjjjjjjjjjjjjjjjjjjjjjjjjjjjj75j:kjmDhj+jjjj",
"jjjhjjDS#jk+k8kjjjjjjjjjjjjjjjjjjjjjjjjjjjjjjjjjj75j:kjmDhj+jjjj",
"jjjjjhDD#jk+k8kjjjjjjjjjjjjjjjjjjjjjjjjjjjjjjjjjj75j:khmDhj+jjjj",
"jjjkjhDD#jk+k8kjjjjjjjjjjjjjjjjjjjjjjjjjjjjjjjjjj75j:kjmDhj+jjjj",
"jjjhjhDD#jk+k8kjjjjjjjjjjjjjjjjjjjjjjjjjjjjjjjjjj75j:kjmDhj+jjjj",
"jjjhjhDD#jk+k8kjjjjjjjjjjjjjjjjjjjjjjjjjjjjjjjjjj75j:kjmDhj+jjjj",
"jjjhjhDD#jk+k8kjjjjjjjjjjjjjjjjjjjjjjjjjjjjjjjjjj75j:kjmDhj+jjjj",
"jjjhjhDD#jk+k8kjjjjjjjjjjjjjjjjjjjjjjjjjjjjjjjjjj75j:kjmDhj+jjjj",
"jjjhjhDD#jk+k8kjjjjjjjjjjjjjjjjjjjjjjjjjjjjjjjjjj75j:kjmDhj+jjjj",
"jjjhjjDD#jk+k8kjjjjjjjjjjjjjjjjjjjjjjjjjjjjjjjjjj75j:kjmDhj+jjjj",
"jjjhjjDD#jk+k8kjjjjjjjjjjjjjjjjjjjjjjjjjjjjjjjjjj75j:kjmDhj+jjjj",
"jjjhjjDD#jk@k8kjjjjjjjjjjjjjjjjjjjjjjjjjjjjjjjjjj75j:kjmDhj+jjjj",
"jjjhjhCS&jk@k7kjjjjjjjjjjjjjjjjjjjjjjjjjjjjjjjjjj75k,kjaZjj+jjjj",
"jjjhjjco@jg#k7kjjjjjjjjjjjjjjjjjjjjjjjjjjjjjjjjjj75j>jj@#kj+jjjj",
"jjjhjkghhe5+j7kjjjjjjjjjjjjjjjjjjjjjjjjjjjjjjjjjj75y*6ahjjj+jjjj",
"jjjhjjjs75ogj5kjjjjjjjjjjjjjjjjjjjjjjjjjjjjjjjjjj75hg@54fjj+jjjj",
"jjjjjk67#xhjj5kjjjjjjjjjjjjjjjjjjjjjjjjjjjjjjjjjj75jjla:47g+jjjj",
"jjjji67Ohjjjj5kjjjjjjjjjjjjjjjjjjjjjjjjjjjjjjjjjj75jjjjh%67+jjjj",
"jjjh6-ljjjjjk5kjjjjjjjjjjjjjjjjjjjjjjjjjjjjjjjjjj65jjjjjjy;$jjjj",
"jjjg=jjjjjjjj5kjjjjjjjjjjjjjjjjjjjjjjjjjjjjjjjjjj76jjjjjjjjOjjjj",
"jjjjjjjjhhjjk5kjjjjjjjjjjjjjjjjjjjjjjjjjjjjjjjjjj65jjjhhhjj+jjjj",
"jjjljhjjggllk6kjhjjhhhhhhhhhhhhhhhhhhhhhhhhhhjjjj65jhlggklj+ljjj",
"jjj:jhj0ap:lk6kjjkkkkkkkkkkkkkkkkkkkkkkkkkkkkkkjjw7jh5aa2kj#pjjj",
"jjjg&jjkjkfjh5-$##@@@@@@@@@@@@@@@@@@@@@@@@@@@@$#&%=jkhjkazz#hjjj",
"jjjki&lkjhjjh%*64444444444444444444444444444444456#kgjhjjk&zjjjj",
"jjjjlX;$$+##$o444444444444444444444444444444444545O@#@@$$ <ljjjj",
"0jjjhhhkkjkkp38+kkkkkkkkkkkkkkkkkkkkkkkkkkkkkkkk#4=lkkjkhijjjjjf",
"5kjjjjjjjjjjj66kjjjjjjjjjjjjjjjjjjjjjjjjjjjjjjjjl5@jjjjjjjjjjjj3",
"20ljjjjjjjjjk66h@$gjjjjjjjjjjjjjjjjjjjjjjjjjkO+=h5$jjhjjjjkjjj93",
"12qt77777777q56jjkvjjjjjjjjjjjjjjjjjjjjjjjjjjhhkk6$e0tyupjjjhh33",
"@32466666666514gjjjjjjjjjjjjjjjjjjjjjjjjjjjjjjjjh4#555555544335$"
};
