/* XPM */
static char *result[] = {
/* columns rows colors chars-per-pixel */
"64 64 87 1 ",
"  c #272727",
". c #282828",
"X c gray16",
"o c #2A2A2A",
"O c gray17",
"+ c #2C2C2C",
"@ c #2D2D2D",
"# c gray18",
"$ c #2F2F2F",
"% c gray19",
"& c #313131",
"* c #323232",
"= c gray20",
"- c #343434",
"; c #353535",
": c #373737",
"> c gray22",
", c #393939",
"< c #3A3A3A",
"1 c gray23",
"2 c #3C3C3C",
"3 c gray24",
"4 c #3E3E3E",
"5 c #3F3F3F",
"6 c gray25",
"7 c #414141",
"8 c gray26",
"9 c #434343",
"0 c #444444",
"q c gray27",
"w c gray28",
"e c #484848",
"r c #494949",
"t c #4B4B4B",
"y c #4C4C4C",
"u c gray30",
"i c #4E4E4E",
"p c gray31",
"a c #505050",
"s c #515151",
"d c gray32",
"f c #535353",
"g c gray33",
"h c #555555",
"j c #565656",
"k c gray34",
"l c #585858",
"z c gray35",
"x c #5D5D5D",
"c c gray37",
"v c #5F5F5F",
"b c #606060",
"n c gray38",
"m c #626262",
"M c gray39",
"N c #646464",
"B c #676767",
"V c DimGray",
"C c #6A6A6A",
"Z c gray42",
"A c #6D6D6D",
"S c gray43",
"D c #6F6F6F",
"F c gray44",
"G c #717171",
"H c #727272",
"J c gray45",
"K c #747474",
"L c gray46",
"P c #767676",
"I c #777777",
"U c gray47",
"Y c #797979",
"T c gray48",
"R c #7B7B7B",
"E c gainsboro",
"W c #DFDFDF",
"Q c #E1E1E1",
"! c gray90",
"~ c #E9E9E9",
"^ c #EAEAEA",
"/ c #F8F8F8",
"( c #F9F9F9",
") c gray99",
"_ c #FDFDFD",
"` c #FEFEFE",
"' c white",
/* pixels */
"*5444+9644444444444444444444444444444444444444444444444444;7434#",
"45dddf+sddddddddddddddddddddddddddddddddddddddddddddddddd23ddd52",
"5ddddsasdddddddddddddddddddddddffddddddddddddddddddddddddffdddg5",
"5djgga%*%%%*=%%%%%%%%%%%%%%%%-**-;%%%%&%%%%%%%%%%%%;*%%%%&yttfd4",
"4dg665Odfff+dffffffffffffffffs6+55ffffdffffffffffffdOffffo344dd4",
"4dw556odddd+dddddddddddddddddf5O55ddddddddddddddddddoddddo344dd4",
"4d8445Odddd+dddddddddddddddddf5O55ddddddddddddddddddoddddo344dd4",
"4d6445Odddd+dddddddddddddddddd4O44ddddddddddddddddddoddddo344dd4",
"4d5445Odddd+dddddddddddddddddd4O45ddddddddddddddddddoddddo344dd4",
"4d5445Odddd+dddddddddddddddddd5O45ddddddddddddddddddoddddo344dd4",
"4d5445Odddd+dddddddddddddddddd4O45ddddddddddddddddddoddddo344dd4",
"4d3445Odddd+dddddddddddddddddd3O45ddddddddddddddddddoddddo344dd4",
"4d3445Odddd+dddddddddddddddddd3O45ddddddddddddddddddoddddo344dd4",
"4d5445Odddd@dddddddddddddddddd3O45ddddddddddddddddddoddddo344dd4",
"4d5455Odddd@dddddddddddddddddd3O45ddddddddddddddddddoddddo344dd4",
"4d3445Odddd+dddddddddddddddddd3O45ddddddddddddddddddoddddo344dd4",
"4d5445Odddd+dddddddddddddddddd3O45ddddddddddddddddddoddddo344dd4",
"4d3445Odddd+dddddddddddddddddd3O45ddddddddddddddddddoddddo344dd4",
"4d3445Odddd+dddddddddddddddddd3O45ddddddddddddddddddoddddo344dd4",
"4d5445Odddd+dddddddddddddddddd3O45ddddddddddddddddddoddddo344dd4",
"4d5445Odddd+dddddddddddddddddd3O45ddddddddddddddddddoddddo344dd4",
"4d5445Odddd@dddddddddddddddddd3O45ddddddddddddddddddoddddo344dd4",
"4d5445Oddddodddddddddddddddddd3O45ddddddddddddddddddOddddo344dd4",
"4d5445Odddd+dddddddddddddddddd3O45ddddddddddddddddddoddddo344dd4",
"4d5445Odddd+dddddddddddddddddd3O46ddddddddddddddddddoddddo344dd4",
"4d5445Odddd@dddddddddddddddddj3O4uddddddddddddddddddOddddo344dd4",
"4d5445Odddsodddddddddddddddddz3O4uddddddddddddddddddOddddo344dd4",
"4d5445Odddd$dddddddddddddddddN5O4eddddddddddddddddddOddddo344dd4",
"4d5445OddddtdddddddddddddddddZ4O4lddddddddddddddddddoddddo344dd4",
"4d3445OdddssdddddddddddddddddS5O4vddddddddddddddddddOddddo344dd4",
"4d3445OdddsadddddddddddddddddS5O4nddddddddddddddddddOddddo344dd4",
"4d5445OddddddMUUUUUUUUUUUYUBdS4O4mfDLLIIIIIIIIIIKJgdoddddo344dd4",
"4d3443OddddddC~''''''''''`^ZsA4O4MH/``'''''''''`_EsdOddddo344dd4",
"4d3445OddddsdxQ``''``'`'`'!VdC4O4vL(''____))___)_WfdOddddo344dd4",
"4d5445Odddsadscnnnnnnnnnnnxpfb6O1psnSGLLIIIIIILHFAddOddddo344dd4",
"4d5445Oddddyl;OOOOOOOOOOOOO+@+O+ooOoOOOOOOOOOOOOO#pdXddddo344dd4",
"4d3445Odddd2l#OO$<<<<<<<<<<<<,,,,,,,,,,,,,,,,<<<+OOuOddddo344dd4",
"4d3445Odddd+XOOo>>>>>>>>>>>>>::::::::::::::::>>>&OO +ddddo344dd4",
"4d5445Odddd@#+#6e76645445563333553333255543333336o+OOddddo344dd4",
"4d5445OddddOO+&PPRTUUYIILFZbbfffffkvZSGKPIUYRTYYYg.Ooddddo344dd4",
"4d3445Odddd+OOOO+++OOoooooooooooooooOoooooooOooo@OOOoddddo344dd4",
"4d5445Odddd+OO+O55554333333333333333433333334333@@OOoddddo344dd4",
"4d5445Odddd+OO%2555544444444444444444444444444443 OOoddddo344dd4",
"4d5445Odddd+O+$fffffdssssssssssssssssssssssssssss3OOoddddo344dd4",
"4d3445Odddd+O+rddddddddddddddddddddddddddddddddddsoOoddddo344dd4",
"4d5445Odddd+O+Oo++++++++++++++++++++++++++++++++O@#Ooddddo344dd4",
"4d3445Odddd++O+O%%%%%%%%%%%%%%%%%%%%%%%%%%%%%%%%$O+Ooddddo344dd4",
"4d3445Odddd+OOX3444444444444444444444444444444444++Ooddddo344dd4",
"4d5445Odddd+OO>44444444444444444444444444444444450@Ooddddo344dd4",
"4d3445Odddd+OOqdddddddddddddddddddddddddddddddddda#Ooddddo344dd4",
"4d3445Odddd#O$ihhhhhhhhhhhhhhhhhhhhhhhhhhhhhhhhhhh,Ooddddo344dd4",
"4d3445OdddfoOOOo++++++++++++++++++++++++++++++++XOOOoddddo344dd4",
"4d3445OdddfXOOO4444444444444444444444444444444445+OOoddddo344dd4",
"4d3445OdddaOOO*4444444444444444444444444444444444ooOoddddo344dd4",
"4d5445Odddd+O$wddddddddddddddddddddddddddddddddddk+Ooddddo344dd4",
"4d5445Odddd+OO;----------------------------------%+Ooddddo344dd4",
"4d3445Odddd+OOO+++++++++++++++++++++++++++++++++oOOOoddddo344dd4",
"4d5445Odddd+OO@4444444444444444444444444444444454+OOoddddo344dd4",
"4d5445OddddXOO14444444444444444444444444444444456&OOoddddo344dd4",
"5d5445Odddd@O@paaaaaaaaaaaaaaaaaaaaaaaaaaaaaaaaasjOOoddddo344dd4",
"7d5445Odddd@hgdsssssssssssssssssssssssssssssssssshs$oddddo344dj3",
"458444Odddd@sddddddddddddddddddddddddddddddddddddddooddddo344d61",
"#44441OgffdogdffffffffffffffffffffffffffffffffffffdO$gggfo54468O",
"@@933;o4554X044555555555555555555555555555555555554>@4448@4445oO"
};
